<svg width="118" height="27" viewBox="0 0 118 27" fill="none" xmlns="http://www.w3.org/2000/svg">
<path d="M30.7969 21V6.72266H33.8242V18.5H39.6152V21H30.7969ZM40.5441 7.25977C40.5441 6.28971 41.0845 5.80469 42.1652 5.80469C43.246 5.80469 43.7863 6.28971 43.7863 7.25977C43.7863 7.72201 43.6496 8.08333 43.3762 8.34375C43.1092 8.59766 42.7056 8.72461 42.1652 8.72461C41.0845 8.72461 40.5441 8.23633 40.5441 7.25977ZM43.6496 21H40.6711V10.082H43.6496V21ZM51.6195 12.3184H49.0414V21H46.0629V12.3184H44.4223V10.8828L46.0629 10.082V9.28125C46.0629 8.03776 46.3689 7.12956 46.9809 6.55664C47.5928 5.98372 48.5727 5.69727 49.9203 5.69727C50.949 5.69727 51.8637 5.85026 52.6645 6.15625L51.9027 8.34375C51.3038 8.15495 50.7504 8.06055 50.2426 8.06055C49.8194 8.06055 49.5134 8.1875 49.3246 8.44141C49.1358 8.6888 49.0414 9.00781 49.0414 9.39844V10.082H51.6195V12.3184ZM56.6598 11.9961C56.0283 11.9961 55.5335 12.1979 55.1754 12.6016C54.8173 12.9987 54.6122 13.5651 54.5602 14.3008H58.7398C58.7268 13.5651 58.5348 12.9987 58.1637 12.6016C57.7926 12.1979 57.2913 11.9961 56.6598 11.9961ZM57.0797 21.1953C55.3219 21.1953 53.9482 20.7103 52.9586 19.7402C51.969 18.7702 51.4742 17.3965 51.4742 15.6191C51.4742 13.7897 51.9299 12.377 52.8414 11.3809C53.7594 10.3783 55.0257 9.87695 56.6402 9.87695C58.1832 9.87695 59.3844 10.3164 60.2437 11.1953C61.1031 12.0742 61.5328 13.2884 61.5328 14.8379V16.2832H54.4918C54.5243 17.1296 54.775 17.7904 55.2437 18.2656C55.7125 18.7409 56.3701 18.9785 57.2164 18.9785C57.874 18.9785 58.4957 18.9102 59.0816 18.7734C59.6676 18.6367 60.2796 18.4186 60.9176 18.1191V20.4238C60.3967 20.6842 59.8401 20.8763 59.2477 21C58.6552 21.1302 57.9326 21.1953 57.0797 21.1953ZM69.0535 9.03711C67.9142 9.03711 67.032 9.4668 66.407 10.3262C65.782 11.179 65.4695 12.3704 65.4695 13.9004C65.4695 17.084 66.6642 18.6758 69.0535 18.6758C70.0561 18.6758 71.2703 18.4251 72.6961 17.9238V20.4629C71.5242 20.9512 70.2156 21.1953 68.7703 21.1953C66.6935 21.1953 65.1049 20.5671 64.0047 19.3105C62.9044 18.0475 62.3543 16.2376 62.3543 13.8809C62.3543 12.3965 62.6245 11.0977 63.1648 9.98438C63.7052 8.86458 64.4799 8.00846 65.4891 7.41602C66.5047 6.81706 67.6928 6.51758 69.0535 6.51758C70.4402 6.51758 71.8335 6.85286 73.2332 7.52344L72.2566 9.98438C71.7228 9.73047 71.1857 9.50911 70.6453 9.32031C70.1049 9.13151 69.5743 9.03711 69.0535 9.03711ZM76.6816 15.5215C76.6816 16.6022 76.8574 17.4193 77.209 17.9727C77.5671 18.526 78.1465 18.8027 78.9473 18.8027C79.7415 18.8027 80.3112 18.5293 80.6562 17.9824C81.0078 17.429 81.1836 16.6087 81.1836 15.5215C81.1836 14.4408 81.0078 13.6302 80.6562 13.0898C80.3047 12.5495 79.7285 12.2793 78.9277 12.2793C78.1335 12.2793 77.5605 12.5495 77.209 13.0898C76.8574 13.6237 76.6816 14.4342 76.6816 15.5215ZM84.2305 15.5215C84.2305 17.2988 83.7617 18.6888 82.8242 19.6914C81.8867 20.694 80.5814 21.1953 78.9082 21.1953C77.86 21.1953 76.9355 20.9674 76.1348 20.5117C75.334 20.0495 74.7188 19.3887 74.2891 18.5293C73.8594 17.6699 73.6445 16.6673 73.6445 15.5215C73.6445 13.7376 74.11 12.3509 75.041 11.3613C75.972 10.3717 77.2806 9.87695 78.9668 9.87695C80.015 9.87695 80.9395 10.1048 81.7402 10.5605C82.541 11.0163 83.1562 11.6706 83.5859 12.5234C84.0156 13.3763 84.2305 14.3757 84.2305 15.5215ZM92.425 21L91.8488 19.5156H91.7707C91.2694 20.1471 90.7518 20.5866 90.218 20.834C89.6906 21.0749 89.0005 21.1953 88.1477 21.1953C87.0995 21.1953 86.2727 20.8958 85.6672 20.2969C85.0682 19.6979 84.7687 18.8451 84.7687 17.7383C84.7687 16.5794 85.1724 15.7266 85.9797 15.1797C86.7935 14.6263 88.0174 14.3203 89.6516 14.2617L91.5461 14.2031V13.7246C91.5461 12.6178 90.9797 12.0645 89.8469 12.0645C88.9745 12.0645 87.9491 12.3281 86.7707 12.8555L85.7844 10.8438C87.0409 10.1862 88.4341 9.85742 89.9641 9.85742C91.4289 9.85742 92.552 10.1764 93.3332 10.8145C94.1145 11.4525 94.5051 12.4225 94.5051 13.7246V21H92.425ZM91.5461 15.9414L90.3937 15.9805C89.5279 16.0065 88.8833 16.1628 88.4602 16.4492C88.037 16.7357 87.8254 17.1719 87.8254 17.7578C87.8254 18.5977 88.3072 19.0176 89.2707 19.0176C89.9608 19.0176 90.5109 18.819 90.9211 18.4219C91.3378 18.0247 91.5461 17.4974 91.5461 16.8398V15.9414ZM100.815 21.1953C97.4164 21.1953 95.7172 19.3301 95.7172 15.5996C95.7172 13.7441 96.1794 12.3281 97.1039 11.3516C98.0284 10.3685 99.3533 9.87695 101.079 9.87695C102.342 9.87695 103.474 10.1243 104.477 10.6191L103.598 12.9238C103.129 12.735 102.693 12.582 102.289 12.4648C101.886 12.3411 101.482 12.2793 101.079 12.2793C99.529 12.2793 98.7543 13.3796 98.7543 15.5801C98.7543 17.7155 99.529 18.7832 101.079 18.7832C101.651 18.7832 102.182 18.7083 102.67 18.5586C103.159 18.4023 103.647 18.1615 104.135 17.8359V20.3848C103.653 20.6908 103.165 20.9023 102.67 21.0195C102.182 21.1367 101.564 21.1953 100.815 21.1953ZM115.552 21H112.574V14.623C112.574 13.0475 111.988 12.2598 110.816 12.2598C109.983 12.2598 109.38 12.543 109.009 13.1094C108.638 13.6758 108.453 14.5938 108.453 15.8633V21H105.474V5.80469H108.453V8.90039C108.453 9.14128 108.43 9.70768 108.384 10.5996L108.316 11.4785H108.472C109.136 10.4108 110.191 9.87695 111.636 9.87695C112.919 9.87695 113.892 10.222 114.556 10.9121C115.22 11.6022 115.552 12.5918 115.552 13.8809V21Z" fill="white"/>
<path fill-rule="evenodd" clip-rule="evenodd" d="M21.8978 3.60785C21.4678 3.17785 20.7378 3.00785 19.2678 3.00785C17.1075 2.93022 14.9655 3.42939 13.0621 4.45403C11.1587 5.47868 9.56257 6.99182 8.43783 8.83785L5.34783 9.00785C5.02926 9.02751 4.72138 9.13014 4.45474 9.30557C4.1881 9.48099 3.97198 9.72309 3.82783 10.0079L1.05783 15.3479C1.01556 15.4308 0.995866 15.5233 1.00072 15.6162C1.00558 15.7092 1.03482 15.7992 1.08549 15.8772C1.13617 15.9553 1.2065 16.0186 1.28941 16.0608C1.37233 16.1031 1.4649 16.1227 1.55783 16.1179L5.18783 15.8879L4.87783 16.5679L9.02783 20.7179L9.55783 20.4579L9.40783 23.9379C9.40378 24.0313 9.42455 24.1242 9.46803 24.2071C9.51152 24.2899 9.57616 24.3598 9.6554 24.4096C9.73463 24.4594 9.82563 24.4873 9.91915 24.4905C10.0127 24.4937 10.1054 24.4721 10.1878 24.4279L15.4278 21.5979C15.7106 21.4538 15.9513 21.239 16.1265 20.9744C16.3017 20.7098 16.4055 20.4044 16.4278 20.0879L16.6178 16.9879C18.4652 15.9008 19.9877 14.3387 21.027 12.4641C22.0664 10.5894 22.5846 8.47059 22.5278 6.32785C22.5378 4.83785 22.3478 4.00785 21.8978 3.60785ZM5.64783 13.8579L4.03783 14.0079L5.55783 11.0079L7.26783 10.9179L5.64783 13.8579ZM14.4078 19.8579L11.5178 21.4179L11.5878 19.7579L14.5078 18.1779L14.4078 19.8579ZM17.9878 10.6179C17.6721 10.9348 17.2694 11.1509 16.8308 11.2388C16.3922 11.3267 15.9373 11.2824 15.5238 11.1116C15.1104 10.9408 14.7569 10.6512 14.5082 10.2793C14.2595 9.9075 14.1267 9.47021 14.1267 9.02285C14.1267 8.5755 14.2595 8.13821 14.5082 7.76637C14.7569 7.39452 15.1104 7.10486 15.5238 6.93406C15.9373 6.76326 16.3922 6.71901 16.8308 6.80691C17.2694 6.89482 17.6721 7.11092 17.9878 7.42785C18.1998 7.63796 18.368 7.88797 18.4828 8.16345C18.5976 8.43892 18.6567 8.73441 18.6567 9.03285C18.6567 9.3313 18.5976 9.62678 18.4828 9.90226C18.368 10.1777 18.1998 10.4277 17.9878 10.6379V10.6179Z" fill="white"/>
</svg>
